<svg width="20" height="20" viewBox="0 0 20 20" fill="none" xmlns="http://www.w3.org/2000/svg">
<g opacity="0.5">
<path fill-rule="evenodd" clip-rule="evenodd" d="M12.4993 7.50008C12.4993 8.88079 11.3801 10.0001 9.99935 10.0001C8.61864 10.0001 7.49935 8.88079 7.49935 7.50008C7.49935 6.11937 8.61864 5.00008 9.99935 5.00008C11.3801 5.00008 12.4993 6.11937 12.4993 7.50008ZM10.8327 7.50008C10.8327 7.96032 10.4596 8.33341 9.99935 8.33341C9.53911 8.33341 9.16602 7.96032 9.16602 7.50008C9.16602 7.03984 9.53911 6.66675 9.99935 6.66675C10.4596 6.66675 10.8327 7.03984 10.8327 7.50008Z" fill="white"/>
<path fill-rule="evenodd" clip-rule="evenodd" d="M15.8327 7.50008C15.8327 10.526 12.7561 14.8705 11.0716 17.0225C10.4366 17.8337 9.99935 18.3334 9.99935 18.3334C9.99935 18.3334 9.56213 17.8337 8.9271 17.0225C7.24255 14.8705 4.16602 10.526 4.16602 7.50008C4.16602 4.27842 6.77769 1.66675 9.99935 1.66675C13.221 1.66675 15.8327 4.27842 15.8327 7.50008ZM14.166 7.50008C14.166 8.19483 13.9107 9.13872 13.4023 10.2646C12.9061 11.3632 12.2296 12.5042 11.5293 13.5547C10.9947 14.3566 10.4583 15.0879 9.99935 15.6854C9.54043 15.0879 9.00397 14.3566 8.46943 13.5547C7.76907 12.5042 7.09258 11.3632 6.59643 10.2646C6.08795 9.13872 5.83268 8.19483 5.83268 7.50008C5.83268 5.19889 7.69816 3.33341 9.99935 3.33341C12.3005 3.33341 14.166 5.19889 14.166 7.50008Z" fill="white"/>
</g>
</svg>
